<?xml version="1.0" encoding="utf-8"?>
<!-- Generator: Adobe Illustrator 16.0.0, SVG Export Plug-In . SVG Version: 6.00 Build 0)  -->
<!DOCTYPE svg PUBLIC "-//W3C//DTD SVG 1.1//EN" "http://www.w3.org/Graphics/SVG/1.1/DTD/svg11.dtd">
<svg version="1.1" xmlns="http://www.w3.org/2000/svg" xmlns:xlink="http://www.w3.org/1999/xlink" x="0px" y="0px" width="100px"
	 height="100px" viewBox="0 0 100 100" style="enable-background:new 0 0 100 100;" xml:space="preserve">
<style type="text/css">
<![CDATA[
	.st0{display:inline;fill:#FFFFFF;}
	.st1{fill:#FFFFFF;}
	.st2{display:inline;}
	.st3{display:none;}
]]>
</style>
<g id="Layer_1" class="st3">
	<rect class="st2" width="100.498" height="100.5"/>
</g>
<g id="before" class="st3">
	<path class="st2" d="M90.102,59.998v-0.001c-0.002,0.009-0.005,0.016-0.008,0.026L90.102,59.998z"/>
	<g class="st2">
		<path class="st1" d="M85.371,59.298l-3.609-8.732l-3.209,14.439c0.296,0.074,0.583,0.174,0.853,0.304L85.371,59.298z"/>
		<path class="st1" d="M77.623,64.883l3.567-15.698l-1.978-4.783c-0.622-1.533-1.273-3.27-1.953-5.208
			c0.086,2.531,0.129,4.594,0.129,6.185v19.506c0.045-0.001,0.088-0.006,0.133-0.006C77.555,64.877,77.589,64.883,77.623,64.883z"/>
		<path class="st1" d="M71.83,90.368l3.899-17.158c-0.616-0.28-1.158-0.693-1.581-1.209L55.851,90.368h-1.32l19.077-19.219
			c-0.283-0.578-0.444-1.224-0.444-1.909c0-0.849,0.246-1.637,0.666-2.307l-6.492-4.567c-0.485,0.844-1.14,1.59-1.968,2.238
			c-1.051,0.816-2.381,1.454-3.993,1.908c-1.614,0.457-3.526,0.685-5.74,0.685c-3.891,0-6.904-0.698-9.037-2.095
			c-2.135-1.395-3.505-3.417-4.112-6.064l4.818-0.955c0.188,0.782,0.477,1.494,0.868,2.137c0.391,0.644,0.922,1.201,1.594,1.67
			c0.673,0.47,1.501,0.832,2.485,1.085c0.983,0.252,2.162,0.379,3.536,0.379c1.172,0,2.235-0.101,3.19-0.304
			c0.955-0.203,1.772-0.513,2.452-0.932c0.68-0.421,1.205-0.955,1.573-1.607c0.162-0.285,0.281-0.599,0.372-0.935l-11.192-7.876
			c-0.057-0.014-0.113-0.027-0.17-0.042c-0.854-0.217-1.675-0.48-2.463-0.792c-0.789-0.311-1.522-0.676-2.203-1.095
			c-0.099-0.061-0.192-0.128-0.287-0.194L35.596,62.578l11.936,27.791h-1.188L34.827,63.45l-1.484,1.681l-3.896,25.254h42.526
			L71.83,90.368z"/>
		<path class="st1" d="M90.102,65.964h-1.969l-0.002,0.006l-2.339-5.657l-5.52,5.54c0.985,0.8,1.613,2.019,1.613,3.387
			c0.001,0.676-0.157,1.312-0.432,1.883l8.602,6.039v1.189l-9.111-6.41c-0.798,1.01-2.033,1.659-3.42,1.659
			c-0.295,0-0.583-0.034-0.861-0.091l-3.75,16.876h17.19V65.964z"/>
		<polygon class="st1" points="33.927,61.348 33.623,63.314 34.395,62.442 		"/>
		<path class="st1" d="M46.297,48.98c-0.256-0.232-0.498-0.479-0.718-0.748c-0.465-0.565-0.835-1.223-1.118-1.963l-5.157-3.629
			c-0.638,0.836-1.614,1.403-2.725,1.496l-2.352,15.257l0.936,2.179L46.297,48.98z"/>
		<path class="st1" d="M60.747,54.123c-0.845-0.412-1.809-0.753-2.885-1.021c-1.052-0.26-2.121-0.524-3.206-0.793l8.881,6.236
			c0.008-0.125,0.02-0.245,0.02-0.375c0-1.013-0.257-1.837-0.771-2.475C62.272,55.06,61.593,54.535,60.747,54.123z"/>
		<path class="st1" d="M51.068,35.255c1.44-0.317,2.999-0.477,4.676-0.477c1.084,0,2.074,0.051,2.979,0.149l7.541-8.53l-7.291,0.844
			c-0.078,1.862-1.61,3.349-3.492,3.349c-1.606,0-2.954-1.082-3.368-2.555l-13.286,1.539l-1.11,7.198
			c1.393,0.575,2.374,1.946,2.374,3.546c0,0.547-0.118,1.065-0.325,1.537l4.327,3.038c-0.084-0.505-0.129-1.047-0.129-1.63
			c0-1.505,0.296-2.793,0.89-3.863c0.593-1.071,1.418-1.949,2.473-2.636C48.382,36.077,49.629,35.574,51.068,35.255z"/>
		<path class="st1" d="M79.581,34.42l3.211,7.719l4.12-18.132l-19.266,2.23l-7.8,8.846c0.284,0.048,0.562,0.101,0.825,0.16
			c1.359,0.312,2.503,0.778,3.428,1.4c0.926,0.623,1.671,1.396,2.235,2.323c0.565,0.926,1.013,2.002,1.346,3.232l-4.883,0.738
			c-0.173-0.752-0.441-1.408-0.803-1.964c-0.361-0.558-0.828-1.023-1.399-1.399c-0.573-0.376-1.266-0.659-2.083-0.847
			c-0.503-0.116-1.065-0.191-1.674-0.236l-6.628,7.515c0.288,0.241,0.612,0.458,0.977,0.652c0.723,0.383,1.569,0.708,2.539,0.976
			s2.011,0.539,3.125,0.814c0.926,0.218,1.858,0.442,2.799,0.673c0.94,0.231,1.837,0.501,2.69,0.813
			c0.854,0.311,1.653,0.685,2.397,1.118c0.746,0.434,1.393,0.969,1.943,1.605c0.55,0.637,0.979,1.385,1.292,2.245
			c0.31,0.861,0.466,1.878,0.466,3.05c0,1.281-0.228,2.465-0.681,3.556l5.139,3.608V34.42H79.581z"/>
		<polygon class="st1" points="90.021,23.647 87.682,23.919 83.34,43.458 88.582,56.063 89.921,54.712 90.102,55.525 90.102,22.917 
					"/>
		<path class="st1" d="M90.062,60.112c0.018-0.051,0.03-0.089,0.04-0.121v-4.005l-1.093,1.098
			C89.363,57.975,89.714,58.984,90.062,60.112z"/>
		<path class="st1" d="M49.543,45.309l6.067-6.863c-1.276,0.001-2.346,0.12-3.208,0.356c-0.869,0.239-1.567,0.569-2.093,0.988
			c-0.529,0.419-0.906,0.907-1.129,1.464c-0.225,0.558-0.336,1.155-0.336,1.791c0,0.882,0.209,1.609,0.628,2.181
			C49.495,45.254,49.521,45.281,49.543,45.309z"/>
		<polygon class="st1" points="68.51,25.258 87.117,23.104 90.102,9.971 81.993,9.971 		"/>
		<polygon class="st1" points="87.883,23.015 90.102,22.759 90.102,13.032 		"/>
		<path class="st1" d="M38.965,28.678l13.018-1.507c0-0.027-0.004-0.053-0.004-0.081c0.001-1.933,1.568-3.499,3.501-3.499
			c1.685,0,3.093,1.191,3.425,2.778l8.226-0.952L80.789,9.971H41.85L38.965,28.678z"/>
		<path class="st1" d="M74.643,65.971h-0.53l0.309,0.216C74.494,66.114,74.564,66.039,74.643,65.971z"/>
		<polygon class="st1" points="22.22,30.616 21.717,30.263 21.885,30.655 		"/>
		<path class="st1" d="M22.246,31.494l11.251,26.197l2.099-13.6c-1.801-0.315-3.169-1.884-3.169-3.772
			c0-0.769,0.228-1.484,0.618-2.083l-9.752-6.863L22.246,31.494z"/>
		<polygon class="st1" points="21.053,28.718 23.54,30.464 37.956,28.795 40.859,9.971 13.001,9.971 		"/>
		<path class="st1" d="M36.259,36.483c0.172,0,0.338,0.015,0.504,0.038l1.054-6.83l-13.202,1.527l9.005,6.323
			C34.308,36.888,35.235,36.483,36.259,36.483z"/>
		<polygon class="st1" points="9.687,20.737 19.499,27.626 11.944,9.971 9.687,9.971 		"/>
		<polygon class="st1" points="9.698,32.066 20.845,30.775 20.157,29.166 9.687,21.798 9.687,32.171 		"/>
		<polygon class="st1" points="32.138,66.497 11.085,90.368 9.687,90.385 28.453,90.385 		"/>
		<polygon class="st1" points="32.419,64.676 33.196,59.64 21.205,31.614 9.687,32.947 9.687,90.385 		"/>
		<polygon class="st1" points="40.863,9.946 40.859,9.971 41.85,9.971 41.854,9.946 		"/>
		<polygon class="st1" points="29.441,90.433 29.447,90.385 28.453,90.385 28.45,90.4 		"/>
		<polygon class="st1" points="11.878,9.814 11.944,9.971 13.001,9.971 12.935,9.814 		"/>
		<polygon class="st1" points="9.5,21.667 9.687,21.798 9.687,20.737 9.6,20.676 		"/>
		<polygon class="st1" points="90.102,22.759 90.102,22.917 90.119,22.756 		"/>
		<polygon class="st1" points="9.687,32.947 9.687,32.171 9.6,32.958 		"/>
		<polygon class="st1" points="80.81,9.948 80.789,9.971 81.993,9.971 82.131,9.814 		"/>
		<polygon class="st1" points="90.102,55.986 90.185,55.901 90.102,55.525 		"/>
		<polygon class="st1" points="90.102,9.971 90.102,13.032 90.318,12.06 		"/>
		<polygon class="st1" points="72.912,90.385 71.973,90.385 72.887,90.5 		"/>
	</g>
	<polygon class="st0" points="35.5,62.564 47.813,48.814 68.313,63.189 60.938,68.439 46,70.064 	"/>
	<polygon class="st0" points="48.375,48.002 61.5,33.189 69.25,40.814 68.375,62.002 	"/>
	<polygon class="st0" points="45.834,49.564 47,48.231 44.084,46.189 	"/>
	<polygon class="st0" points="47.625,47.471 42.969,44.096 44,36.971 50.282,34.564 58.907,34.689 	"/>
	<path class="st0" d="M74.334,66.231c0,0,0.917-1.5,3.417-1.333l5.917-26.917l-5.75-5.833l-8,3l2.75,29.917L74.334,66.231z"/>
	<polygon class="st0" points="80.188,65.939 90.125,56.002 90.063,66.502 	"/>
	<polygon class="st0" points="79,63.127 83.875,40.814 89.188,55.439 80.688,64.127 	"/>
</g>
<g id="after">
	<g>
		<path class="st1" d="M82.041,78.531c-0.764-0.347-1.434-0.859-1.958-1.499L57.416,99.785h-1.635l23.631-23.807
			c-0.35-0.716-0.55-1.516-0.55-2.365c0-1.052,0.305-2.027,0.824-2.857l-8.042-5.658c-0.023,0.041-0.052,0.078-0.076,0.119
			l-4.88-3.422c0.015-0.051,0.035-0.098,0.049-0.15l-13.864-9.757c-0.071-0.017-0.14-0.034-0.211-0.052
			c-0.101-0.026-0.198-0.059-0.298-0.085l-4.904-3.439l-0.879,0.982c-0.018-0.012-0.036-0.023-0.053-0.036l-5.55,6.293l-8.77,9.793
			l0.161,0.114l14.743,34.328h-1.472L31.373,66.44l-1.838,2.083l-4.825,31.283h52.678l-0.177-0.021L82.041,78.531z"/>
		<polygon class="st1" points="29.881,66.272 30.837,65.191 30.258,63.836 		"/>
		<path class="st1" d="M43.308,45.158l-6.388-4.496c-0.791,1.036-2,1.738-3.375,1.854l-2.914,18.899l1.16,2.7l13.193-14.921
			l0.024,0.047l1.445-1.651l-2.985-2.09C43.417,45.381,43.354,45.278,43.308,45.158z"/>
		<path class="st1" d="M96.846,17.472l-4.675,21.04l-0.04-0.111l-3.807,17.422l-2.788,12.542c0.367,0.091,0.722,0.216,1.056,0.376
			l1.503-1.515l0.086,0.051l9.777-9.992l0.001,0.003l1.659-1.673l0.224,1.007V16.23l-0.101,0.905L96.846,17.472z"/>
		<path class="st1" d="M98.49,58.554c0.004,0.01,0.008,0.022,0.012,0.032l-3.989,3.989l-0.008-0.02l-6.838,6.862
			c0,0.001,0.001,0.001,0.002,0.002l-0.104,0.104l0.235,0.014c1.141,0.991,1.866,2.445,1.866,4.075
			c0.001,0.837-0.194,1.625-0.535,2.333l10.656,7.48v1.473l-11.286-7.94c-0.988,1.251-2.518,2.055-4.237,2.055
			c-0.366,0-0.722-0.042-1.067-0.112L78.55,99.806h21.294V69.555h-0.044l0.074-12.341l-0.029,0.029v-0.049L98.49,58.554z"/>
		<path class="st1" d="M49.603,43.969l7.516-8.501c-0.009,0-0.017,0-0.025,0l3.85-4.361c0.01,0.001,0.021,0.001,0.03,0.002
			l9.342-10.566l-9.032,1.046c-0.097,2.306-1.995,4.149-4.326,4.149c-1.989,0-3.659-1.34-4.172-3.166l-16.457,1.906l-1.375,8.917
			c1.725,0.712,2.94,2.411,2.94,4.392c0,0.678-0.146,1.32-0.403,1.904l4.495,3.156l5.242,3.799l2.37-2.685
			C49.599,43.964,49.601,43.966,49.603,43.969z"/>
		<polygon class="st1" points="96.146,16.461 99.844,0.194 89.799,0.194 73.098,19.13 		"/>
		<polygon class="st1" points="99.844,16.035 99.844,3.985 97.096,16.352 		"/>
		<path class="st1" d="M52.625,21.5c0-0.034-0.005-0.066-0.005-0.1c0.002-2.395,1.943-4.334,4.337-4.334
			c2.087,0,3.831,1.476,4.243,3.441l10.189-1.179L88.308,0.194H40.073l-3.574,23.173L52.625,21.5z"/>
		<polygon class="st1" points="15.341,25.816 15.756,25.768 15.133,25.33 		"/>
		<path class="st1" d="M28.399,37.786c0-0.953,0.283-1.838,0.765-2.581l-12.08-8.502l-1.296,0.151l13.938,32.451l2.6-16.847
			C30.094,42.069,28.399,40.125,28.399,37.786z"/>
		<polygon class="st1" points="17.391,25.58 35.249,23.512 38.845,0.194 4.337,0.194 14.311,23.417 		"/>
		<path class="st1" d="M33.147,33.036c0.213,0,0.419,0.019,0.625,0.047l1.306-8.46l-16.354,1.892l11.155,7.833
			C30.729,33.537,31.878,33.036,33.147,33.036z"/>
		<polygon class="st1" points="3.027,0.194 0.231,0.194 0.231,13.531 12.385,22.064 		"/>
		<polygon class="st1" points="14.053,25.965 13.201,23.972 0.231,14.844 0.231,27.694 0.245,27.564 		"/>
		<polygon class="st1" points="1.963,99.785 0.231,99.806 23.477,99.806 28.042,70.215 		"/>
		<polygon class="st1" points="29.353,61.721 14.499,27.004 0.231,28.655 0.231,99.806 28.391,67.959 		"/>
		<polygon class="st1" points="40.078,0.163 38.85,0.163 38.845,0.194 40.073,0.194 		"/>
		<polygon class="st1" points="23.474,99.825 24.701,99.865 24.709,99.806 23.477,99.806 		"/>
		<polygon class="st1" points="4.254,0 2.945,0 3.027,0.194 4.337,0.194 		"/>
		<polygon class="st1" points="0.124,13.455 0,14.682 0.231,14.844 0.231,13.531 		"/>
		<polygon class="st1" points="99.865,16.032 99.844,16.035 99.844,16.23 		"/>
		<polygon class="st1" points="0.124,28.668 0.231,28.655 0.231,27.694 		"/>
		<polygon class="st1" points="89.97,0 88.334,0.165 88.308,0.194 89.799,0.194 		"/>
		<polygon class="st1" points="99.946,57.09 99.844,56.624 99.844,57.194 		"/>
		<polygon class="st1" points="100.111,2.781 99.844,0.194 99.844,3.985 		"/>
		<polygon class="st1" points="78.519,99.948 78.55,99.806 77.387,99.806 		"/>
		<path class="st1" d="M90.757,39.968l0.031,0.074l5.103-22.461l-23.865,2.763l-7.603,8.621l-0.009-0.01L48.156,47.304
			l24.775,17.342l0.003-0.072l5.3,3.722l0.014,0.144l2.064,1.445c0,0,0.021-0.034,0.062-0.087l0.046,0.033
			c0.089-0.091,0.177-0.184,0.275-0.268h-0.121c0.486-0.521,1.695-1.481,3.97-1.329L90.757,39.968z"/>
	</g>
</g>
</svg>
